{
  "source": "C:\\Users\\Peter\\Desktop\\stuff\\MIUN\\quantitative_research\\video_compression\\videos\\BVI-HD\\BVI-HD_CDVL_videos\\ORIG\\Fountain_1920x1080_50fps.mp4",
  "output": "C:\\Users\\Peter\\Desktop\\stuff\\MIUN\\quantitative_research\\video_compression\\compressed_videos\\BVI-HD\\av1\\1.5\\Fountain_1920x1080_50fps_av1.mkv",
  "codec": "av1",
  "ok": "Input #0, mov,mp4,m4a,3gp,3g2,mj2, from 'C:\\Users\\Peter\\Desktop\\stuff\\MIUN\\quantitative_research\\video_compression\\videos\\BVI-HD\\BVI-HD_CDVL_videos\\ORIG\\Fountain_1920x1080_50fps.mp4':\n  Metadata:\n    major_brand     : isom\n    minor_version   : 512\n    compatible_brands: isomiso2avc1mp41\n    encoder         : Lavf54.28.101\n  Duration: 00:00:05.00, start: 0.000000, bitrate: 603457 kb/s\n  Stream #0:0[0x1](und): Video: h264 (High 4:4:4 Predictive) (avc1 / 0x31637661), yuv420p(progressive), 1920x1080, 603453 kb/s, 50 fps, 50 tbr, 50 tbn (default)\n    Metadata:\n      handler_name    : VideoHandler\n      vendor_id       : [0][0][0][0]\n[out#0/matroska @ 000001ee9747e9c0] Codec AVOption b:a (set bitrate (in bits/s)) has not been used for any stream. The most likely reason is either wrong type (e.g. a video option with no video streams) or that it is a private option of some decoder which was not actually used for any stream.\nStream mapping:\n  Stream #0:0 -> #0:0 (h264 (native) -> av1 (libsvtav1))\nPress [q] to stop, [?] for help\nSvt[info]: -------------------------------------------\nSvt[info]: SVT [version]:\tSVT-AV1 Encoder Lib v3.1.0-19-g6ecfe8ec\nSvt[info]: SVT [build]  :\tGCC 15.2.0\t 64 bit\nSvt[info]: LIB Build date: Aug 17 2025 11:37:13\nSvt[info]: -------------------------------------------\nSvt[info]: Level of Parallelism: 5\nSvt[info]: Number of PPCS 93\nSvt[info]: [asm level on system : up to avx2]\nSvt[info]: [asm level selected : up to avx2]\nSvt[info]: -------------------------------------------\nSvt[info]: SVT [config]: main profile\ttier (auto)\tlevel (auto)\nSvt[info]: SVT [config]: width / height / fps numerator / fps denominator \t\t: 1920 / 1080 / 50 / 1\nSvt[info]: SVT [config]: bit-depth / color format \t\t\t\t\t: 8 / YUV420\nSvt[info]: SVT [config]: preset / tune / pred struct \t\t\t\t\t: 4 / PSNR / random access\nSvt[info]: SVT [config]: gop size / mini-gop size / key-frame type \t\t\t: 321 / 16 / key frame\nSvt[info]: SVT [config]: BRC mode / target bitrate (kbps)\t\t\t\t: VBR / 1500 \nSvt[info]: SVT [config]: AQ mode / Variance Boost \t\t\t\t\t: 2 / 0\nSvt[info]: SVT [config]: sharpness / luminance-based QP bias \t\t\t\t: 0 / 0\nSvt[info]: SVT [config]: QP scale compress strength \t\t\t\t\t: 0\nSvt[info]: -------------------------------------------\nOutput #0, matroska, to 'C:\\Users\\Peter\\Desktop\\stuff\\MIUN\\quantitative_research\\video_compression\\compressed_videos\\BVI-HD\\av1\\1.5\\Fountain_1920x1080_50fps_av1.mkv':\n  Metadata:\n    major_brand     : isom\n    minor_version   : 512\n    compatible_brands: isomiso2avc1mp41\n    encoder         : Lavf62.3.100\n  Stream #0:0(und): Video: av1 (AV01 / 0x31305641), yuv420p(tv, progressive), 1920x1080, q=2-31, 1500 kb/s, 50 fps, 1k tbn (default)\n    Metadata:\n      encoder         : Lavc62.11.100 libsvtav1\n      handler_name    : VideoHandler\n      vendor_id       : [0][0][0][0]\n    Side data:\n      cpb: bitrate max/min/avg: 0/0/1500000 buffer size: 1500000 vbv_delay: N/A\nframe=    0 fps=0.0 q=0.0 size=       0KiB time=N/A bitrate=N/A speed=N/A elapsed=0:00:01.04    \nframe=    0 fps=0.0 q=0.0 size=       0KiB time=N/A bitrate=N/A speed=N/A elapsed=0:00:01.59    \nframe=    0 fps=0.0 q=0.0 size=       0KiB time=N/A bitrate=N/A speed=N/A elapsed=0:00:02.15    \nframe=    0 fps=0.0 q=0.0 size=       0KiB time=N/A bitrate=N/A speed=N/A elapsed=0:00:02.73    \nframe=    0 fps=0.0 q=0.0 size=       0KiB time=N/A bitrate=N/A speed=N/A elapsed=0:00:03.28    \nframe=    0 fps=0.0 q=0.0 size=       0KiB time=N/A bitrate=N/A speed=N/A elapsed=0:00:03.83    \nframe=    1 fps=0.2 q=37.0 size=       1KiB time=00:00:00.00 bitrate=N/A speed=   0x elapsed=0:00:04.39    \nframe=    1 fps=0.2 q=37.0 size=       1KiB time=00:00:00.00 bitrate=N/A speed=   0x elapsed=0:00:04.94    \nframe=    1 fps=0.2 q=37.0 size=       1KiB time=00:00:00.00 bitrate=N/A speed=   0x elapsed=0:00:05.52    \nframe=    2 fps=0.3 q=58.0 size=       1KiB time=00:00:00.00 bitrate=N/A speed=   0x elapsed=0:00:06.14    \nframe=    4 fps=0.6 q=55.0 size=       1KiB time=00:00:00.06 bitrate=  95.1kbits/s speed=0.00889x elapsed=0:00:06.74    \nframe=    7 fps=1.0 q=54.0 size=       1KiB time=00:00:00.12 bitrate=  47.5kbits/s speed=0.0164x elapsed=0:00:07.33    \nframe=    8 fps=1.0 q=54.0 size=       1KiB time=00:00:00.14 bitrate=  40.7kbits/s speed=0.0177x elapsed=0:00:07.90    \nframe=   10 fps=1.2 q=53.0 size=       1KiB time=00:00:00.16 bitrate=  35.6kbits/s speed=0.0185x elapsed=0:00:08.63    \nframe=   11 fps=1.2 q=54.0 size=       1KiB time=00:00:00.20 bitrate=  28.5kbits/s speed=0.0216x elapsed=0:00:09.24    \nframe=   14 fps=1.4 q=52.0 size=       1KiB time=00:00:00.26 bitrate=  21.9kbits/s speed=0.0265x elapsed=0:00:09.81    \nframe=   18 fps=1.7 q=51.0 size=       1KiB time=00:00:00.32 bitrate=  17.8kbits/s speed=0.0306x elapsed=0:00:10.45    \nframe=   19 fps=1.7 q=54.0 size=       1KiB time=00:00:00.36 bitrate=  15.8kbits/s speed=0.0327x elapsed=0:00:11.02    \nframe=   22 fps=1.9 q=49.0 size=       1KiB time=00:00:00.42 bitrate=  13.6kbits/s speed=0.0363x elapsed=0:00:11.56    \nframe=   23 fps=1.9 q=52.0 size=       1KiB time=00:00:00.44 bitrate=  13.0kbits/s speed=0.0364x elapsed=0:00:12.09    \nframe=   27 fps=2.1 q=54.0 size=       1KiB time=00:00:00.52 bitrate=  11.0kbits/s speed=0.0411x elapsed=0:00:12.65    \nframe=   31 fps=2.3 q=53.0 size=       1KiB time=00:00:00.58 bitrate=   9.8kbits/s speed=0.0439x elapsed=0:00:13.20    \nframe=   33 fps=2.4 q=39.0 size=       1KiB time=00:00:00.64 bitrate=   8.9kbits/s speed=0.0465x elapsed=0:00:13.76    \nframe=   36 fps=2.5 q=50.0 size=       1KiB time=00:00:00.70 bitrate=   8.1kbits/s speed=0.0489x elapsed=0:00:14.32    \nframe=   39 fps=2.6 q=52.0 size=       1KiB time=00:00:00.76 bitrate=   7.5kbits/s speed=0.0511x elapsed=0:00:14.88    \nframe=   42 fps=2.7 q=51.0 size=       1KiB time=00:00:00.82 bitrate=   7.0kbits/s speed=0.0531x elapsed=0:00:15.43    \nframe=   45 fps=2.8 q=51.0 size=       1KiB time=00:00:00.86 bitrate=   6.6kbits/s speed=0.0539x elapsed=0:00:15.94    \nframe=   48 fps=2.9 q=52.0 size=       1KiB time=00:00:00.94 bitrate=   6.1kbits/s speed=0.0571x elapsed=0:00:16.47    \nframe=   52 fps=3.1 q=52.0 size=       1KiB time=00:00:01.02 bitrate=   5.6kbits/s speed=0.0599x elapsed=0:00:17.01    \nframe=   55 fps=3.1 q=54.0 size=       1KiB time=00:00:01.08 bitrate=   5.3kbits/s speed=0.0615x elapsed=0:00:17.55    \nframe=   58 fps=3.2 q=52.0 size=       1KiB time=00:00:01.14 bitrate=   5.0kbits/s speed=0.0629x elapsed=0:00:18.12    \nframe=   63 fps=3.4 q=54.0 size=       1KiB time=00:00:01.20 bitrate=   4.8kbits/s speed=0.0643x elapsed=0:00:18.65    \nframe=   67 fps=3.5 q=55.0 size=       1KiB time=00:00:01.32 bitrate=   4.3kbits/s speed=0.0687x elapsed=0:00:19.21    \nframe=   71 fps=3.6 q=55.0 size=       1KiB time=00:00:01.40 bitrate=   4.1kbits/s speed=0.0708x elapsed=0:00:19.76    \nframe=   75 fps=3.7 q=55.0 size=       1KiB time=00:00:01.48 bitrate=   3.9kbits/s speed=0.0729x elapsed=0:00:20.30    \nframe=   79 fps=3.8 q=54.0 size=       1KiB time=00:00:01.56 bitrate=   3.7kbits/s speed=0.0749x elapsed=0:00:20.82    \nframe=   82 fps=3.8 q=51.0 size=       1KiB time=00:00:01.62 bitrate=   3.5kbits/s speed=0.0759x elapsed=0:00:21.35    \nframe=   86 fps=3.9 q=51.0 size=       1KiB time=00:00:01.70 bitrate=   3.4kbits/s speed=0.0777x elapsed=0:00:21.88    \nframe=   88 fps=3.9 q=51.0 size=       1KiB time=00:00:01.72 bitrate=   3.3kbits/s speed=0.0767x elapsed=0:00:22.41    \nframe=   91 fps=4.0 q=53.0 size=       1KiB time=00:00:01.80 bitrate=   3.2kbits/s speed=0.0784x elapsed=0:00:22.95    \nframe=   95 fps=4.0 q=54.0 size=       1KiB time=00:00:01.88 bitrate=   3.0kbits/s speed=0.0801x elapsed=0:00:23.47    \nframe=   99 fps=4.1 q=53.0 size=       1KiB time=00:00:01.96 bitrate=   2.9kbits/s speed=0.0816x elapsed=0:00:24.01    \nframe=  102 fps=4.2 q=52.0 size=       1KiB time=00:00:02.02 bitrate=   2.8kbits/s speed=0.0823x elapsed=0:00:24.54    \nframe=  104 fps=4.2 q=52.0 size=       1KiB time=00:00:02.06 bitrate=   2.8kbits/s speed=0.0822x elapsed=0:00:25.04    \nframe=  107 fps=4.2 q=54.0 size=       1KiB time=00:00:02.12 bitrate=   2.7kbits/s speed=0.0829x elapsed=0:00:25.57    \nframe=  112 fps=4.3 q=53.0 size=       1KiB time=00:00:02.22 bitrate=   2.6kbits/s speed=0.085x elapsed=0:00:26.10    \nframe=  115 fps=4.3 q=55.0 size=       1KiB time=00:00:02.28 bitrate=   2.5kbits/s speed=0.0856x elapsed=0:00:26.62    \nframe=  118 fps=4.3 q=53.0 size=       1KiB time=00:00:02.34 bitrate=   2.4kbits/s speed=0.0862x elapsed=0:00:27.14    \nframe=  120 fps=4.3 q=53.0 size=       1KiB time=00:00:02.38 bitrate=   2.4kbits/s speed=0.086x elapsed=0:00:27.67    \nframe=  125 fps=4.4 q=52.0 size=       1KiB time=00:00:02.48 bitrate=   2.3kbits/s speed=0.0879x elapsed=0:00:28.22    \nframe=  130 fps=4.5 q=54.0 size=       1KiB time=00:00:02.58 bitrate=   2.2kbits/s speed=0.0896x elapsed=0:00:28.79    \nframe=  134 fps=4.6 q=53.0 size=       1KiB time=00:00:02.66 bitrate=   2.1kbits/s speed=0.0908x elapsed=0:00:29.30    \nframe=  136 fps=4.6 q=53.0 size=       1KiB time=00:00:02.70 bitrate=   2.1kbits/s speed=0.0905x elapsed=0:00:29.83    \nframe=  141 fps=4.6 q=52.0 size=       1KiB time=00:00:02.80 bitrate=   2.0kbits/s speed=0.0923x elapsed=0:00:30.35    \nframe=  146 fps=4.7 q=53.0 size=       1KiB time=00:00:02.90 bitrate=   2.0kbits/s speed=0.094x elapsed=0:00:30.85    \nframe=  150 fps=4.8 q=53.0 size=       1KiB time=00:00:02.98 bitrate=   1.9kbits/s speed=0.095x elapsed=0:00:31.38    \nframe=  152 fps=4.8 q=53.0 size=       1KiB time=00:00:03.02 bitrate=   1.9kbits/s speed=0.0947x elapsed=0:00:31.89    \nframe=  157 fps=4.8 q=51.0 size=       1KiB time=00:00:03.12 bitrate=   1.8kbits/s speed=0.0962x elapsed=0:00:32.42    \nframe=  163 fps=4.9 q=55.0 size=       1KiB time=00:00:03.24 bitrate=   1.8kbits/s speed=0.0983x elapsed=0:00:32.97    \nframe=  169 fps=5.0 q=44.0 size=       1KiB time=00:00:03.36 bitrate=   1.7kbits/s speed= 0.1x elapsed=0:00:33.49    \nframe=  173 fps=5.1 q=52.0 size=       1KiB time=00:00:03.44 bitrate=   1.7kbits/s speed=0.101x elapsed=0:00:34.00    \nframe=  179 fps=5.2 q=53.0 size=       1KiB time=00:00:03.56 bitrate=   1.6kbits/s speed=0.103x elapsed=0:00:34.51    \nframe=  185 fps=5.3 q=45.0 size=       1KiB time=00:00:03.68 bitrate=   1.6kbits/s speed=0.105x elapsed=0:00:35.07    \nframe=  185 fps=5.2 q=45.0 size=       1KiB time=00:00:03.68 bitrate=   1.6kbits/s speed=0.103x elapsed=0:00:35.59    \nframe=  189 fps=5.2 q=52.0 size=       1KiB time=00:00:03.76 bitrate=   1.5kbits/s speed=0.104x elapsed=0:00:36.10    \nframe=  195 fps=5.3 q=53.0 size=       1KiB time=00:00:03.88 bitrate=   1.5kbits/s speed=0.106x elapsed=0:00:36.64    \nframe=  201 fps=5.4 q=45.0 size=       1KiB time=00:00:04.00 bitrate=   1.4kbits/s speed=0.108x elapsed=0:00:37.19    \nframe=  201 fps=5.3 q=45.0 size=       1KiB time=00:00:04.00 bitrate=   1.4kbits/s speed=0.106x elapsed=0:00:37.71    \nframe=  207 fps=5.4 q=54.0 size=       1KiB time=00:00:04.12 bitrate=   1.4kbits/s speed=0.108x elapsed=0:00:38.24    \nframe=  213 fps=5.5 q=53.0 size=       1KiB time=00:00:04.24 bitrate=   1.3kbits/s speed=0.109x elapsed=0:00:38.76    \nframe=  217 fps=5.5 q=45.0 size=       1KiB time=00:00:04.32 bitrate=   1.3kbits/s speed=0.11x elapsed=0:00:39.29    \nframe=  219 fps=5.5 q=54.0 size=       1KiB time=00:00:04.36 bitrate=   1.3kbits/s speed=0.11x elapsed=0:00:39.81    \nframe=  225 fps=5.6 q=38.0 size=       1KiB time=00:00:04.48 bitrate=   1.3kbits/s speed=0.111x elapsed=0:00:40.32    \nframe=  229 fps=5.6 q=56.0 size=       1KiB time=00:00:04.56 bitrate=   1.3kbits/s speed=0.112x elapsed=0:00:40.85    \nframe=  233 fps=5.6 q=50.0 size=       1KiB time=00:00:04.64 bitrate=   1.2kbits/s speed=0.112x elapsed=0:00:41.37    \nframe=  239 fps=5.7 q=55.0 size=       1KiB time=00:00:04.76 bitrate=   1.2kbits/s speed=0.114x elapsed=0:00:41.91    \n[out#0/matroska @ 000001ee9747e9c0] video:897KiB audio:0KiB subtitle:0KiB other streams:0KiB global headers:0KiB muxing overhead: 0.206762%\nframe=  250 fps=5.9 q=59.0 Lsize=     899KiB time=00:00:04.98 bitrate=1478.5kbits/s speed=0.118x elapsed=0:00:42.20    \n",
  "seconds": 42.65330147743225,
  "probe_out": {}
}